HIERARCHY
ROOT Hips
{
     OFFSET 1.88212 96.90440 -13.34250
     CHANNELS 6 Xposition Yposition Zposition Zrotation Xrotation Yrotation
     JOINT Spine
     {
          OFFSET 0.00000 11.89050 0.00000
          CHANNELS 3 Zrotation Xrotation Yrotation
          JOINT Spine1
          {
               OFFSET -0.00000 25.65740 0.12766
               CHANNELS 3 Zrotation Xrotation Yrotation
               JOINT HEad
               {
                    OFFSET 0.00000 8.73416 0.01134
                    CHANNELS 3 Zrotation Xrotation Yrotation
                    End Site
                    {
                         OFFSET -0.29000 12.77420 2.51395
                    }
               }
               JOINT LeftShoulder1
               {
                    OFFSET 8.99000 -0.36225 -0.22000
                    CHANNELS 3 Zrotation Xrotation Yrotation
                    JOINT LeftArm
                    {
                         OFFSET 10.28270 -0.00338 0.32212
                         CHANNELS 3 Zrotation Xrotation Yrotation
                         JOINT LeftForeArm
                         {
                              OFFSET 32.76690 0.09914 -1.42434
                              CHANNELS 3 Zrotation Xrotation Yrotation
                              JOINT LeftHand
                              {
                                   OFFSET 27.56430 0.08536 1.02216
                                   CHANNELS 3 Zrotation Xrotation Yrotation
                                   End Site
                                   {
                                        OFFSET 16.74430 -0.60000 1.50291
                                   }
                              }
                         }
                    }
               }
               JOINT RightShoulder
               {
                    OFFSET -8.99000 -0.36225 -0.22000
                    CHANNELS 3 Zrotation Xrotation Yrotation
                    JOINT RightArm
                    {
                         OFFSET -10.28270 -0.00338 0.32212
                         CHANNELS 3 Zrotation Xrotation Yrotation
                         JOINT RightForeArm
                         {
                              OFFSET -32.89710 0.09914 -1.42434
                              CHANNELS 3 Zrotation Xrotation Yrotation
                              JOINT RightHand
                              {
                                   OFFSET -27.49210 0.08536 1.02216
                                   CHANNELS 3 Zrotation Xrotation Yrotation
                                   End Site
                                   {
                                        OFFSET -16.63120 -0.60000 1.50291
                                   }
                              }
                         }
                    }
               }
          }
     }
     JOINT LeftUpLeg
     {
          OFFSET 8.94580 -8.66707 0.10165
          CHANNELS 3 Zrotation Xrotation Yrotation
          JOINT LeftLeg
          {
               OFFSET 0.00000 -44.42270 1.37270
               CHANNELS 3 Zrotation Xrotation Yrotation
               JOINT LeftFoot
               {
                    OFFSET -0.25355 -42.09240 -1.46059
                    CHANNELS 3 Zrotation Xrotation Yrotation
                    JOINT LeftToes
                    {
                         OFFSET -0.04000 -4.41509 8.49910
                         CHANNELS 3 Zrotation Xrotation Yrotation
                         End Site
                         {
                              OFFSET 0.08000 -0.04745 9.77979
                         }
                    }
               }
          }
     }
     JOINT RightUpLeg
     {
          OFFSET -8.94580 -8.66707 0.10165
          CHANNELS 3 Zrotation Xrotation Yrotation
          JOINT RightLeg
          {
               OFFSET 0.00000 -44.42270 1.37270
               CHANNELS 3 Zrotation Xrotation Yrotation
               JOINT RightFoot
               {
                    OFFSET 0.25355 -42.09240 -1.46059
                    CHANNELS 3 Zrotation Xrotation Yrotation
                    JOINT RightToes
                    {
                         OFFSET 0.04000 -4.41509 8.49910
                         CHANNELS 3 Zrotation Xrotation Yrotation
                         End Site
                         {
                              OFFSET -0.08000 -0.13745 9.77979
                         }
                    }
               }
          }
     }
}
MOTION
Frames: 12
Frame Time: 0.01667
71.84870 92.16505 -38.66152 7.91037 11.20452 145.03528 -12.36046 26.89215 2.89025 0.00165 0.00739 -0.00013 -10.10612 23.33116 11.66167 0.88310 8.80330 0.91528 -142.43129 -65.34217 -117.91204 -22.22193 62.11793 -94.01955 16.31934 8.90878 -6.04074 19.19704 9.81236 0.40682 81.30081 -0.67746 71.87388 -2.25380 27.41837 101.45839 16.43402 12.01639 9.83866 13.28522 1.08427 -16.40022 -21.48801 10.39762 62.52935 9.82668 -0.00505 0.00539 -9.57215 -17.73602 -56.12159 -32.83078 5.00446 15.44997 49.04224 14.47529 -39.27965 -28.95667 -0.00639 -0.00399 8.01967 -27.95844 6.41618 
71.40936 92.38218 -38.88769 8.13057 11.00433 145.12776 -11.94615 27.04387 2.66106 0.00139 0.00720 0.00041 -10.01024 22.36308 12.62745 0.84468 8.80871 1.26095 -141.86211 -64.73456 -117.64032 -21.57697 61.99867 -94.59612 16.36305 8.95387 -5.91191 19.20456 9.89737 0.62685 81.71748 -0.99292 72.34615 -2.90797 27.45231 102.20074 16.43667 11.92909 9.73686 13.37408 0.79336 -14.63330 -21.50609 11.26351 61.26151 10.94841 -0.00407 0.00496 -10.57185 -18.12566 -56.74572 -32.63995 3.30052 14.29494 49.14964 17.36192 -38.72074 -28.46712 0.00628 -0.00204 7.76502 -27.92692 6.25391 
70.97701 92.59986 -39.04774 8.34038 10.76083 145.27199 -11.46916 27.15497 2.42041 0.00121 0.00710 0.00087 -9.93441 21.51023 13.48095 0.79674 8.78729 1.59936 -141.36337 -64.05938 -117.40836 -20.90672 61.91808 -95.21591 16.43343 8.99802 -5.73769 19.16432 9.95785 0.87226 82.14481 -1.32652 72.85995 -3.55253 27.46581 102.93001 16.43213 11.86101 9.61990 13.50855 0.42548 -13.02274 -21.51605 12.04021 60.04152 12.10360 -0.00315 0.00422 -11.54053 -18.40619 -57.27607 -32.41903 1.84048 13.27546 48.96333 19.72751 -38.15432 -27.81462 0.01015 -0.00018 7.49092 -27.66819 6.40646 
70.55745 92.81850 -39.14692 8.53227 10.48365 145.47208 -10.93728 27.22836 2.17036 0.00108 0.00708 0.00128 -9.88164 20.77105 14.21474 0.74097 8.74161 1.91849 -140.92313 -63.31849 -117.19376 -20.21074 61.87270 -95.86521 16.49727 9.01149 -5.52496 19.07750 9.99230 1.13474 82.58150 -1.67829 73.41682 -4.18996 27.45769 103.63246 16.42303 11.79285 9.48438 13.66840 -0.00282 -11.57573 -21.50165 12.70868 58.86443 13.28573 -0.00229 0.00325 -12.46891 -18.56990 -57.71211 -32.16120 0.64769 12.39828 48.58858 21.68541 -37.55119 -27.23867 0.01315 0.00175 7.38248 -27.27438 6.71863 
70.16206 93.03447 -39.19263 8.70117 10.18443 145.73163 -10.35889 27.26808 1.91213 0.00093 0.00708 0.00163 -9.85431 20.14366 14.82564 0.67353 8.67369 2.21077 -140.52336 -62.52025 -116.97192 -19.49577 61.86121 -96.52802 16.59134 9.01233 -5.28145 18.94822 9.99878 1.40045 83.02249 -2.04054 74.01026 -4.82318 27.42990 104.29671 16.41146 11.72792 9.34762 13.83853 -0.46783 -10.29977 -21.45229 13.25762 57.72447 14.47973 -0.00150 0.00216 -13.35367 -18.61918 -58.05602 -31.86472 -0.27637 11.66841 48.10052 23.29164 -36.90770 -26.62720 0.01418 0.00309 7.27601 -26.77134 7.13260 
69.80338 93.24073 -39.19206 8.84407 9.87548 146.05240 -9.74439 27.27748 1.64762 0.00072 0.00706 0.00184 -9.85370 19.62656 15.31419 0.58844 8.58444 2.46791 -140.15518 -61.68313 -116.72855 -18.77360 61.88449 -97.18852 16.69126 8.99064 -5.01574 18.77771 9.97514 1.65876 83.46423 -2.40429 74.62516 -5.45495 27.38589 104.91502 16.40344 11.65312 9.21027 14.00808 -0.94460 -9.19980 -21.36224 13.68424 56.61705 15.66635 -0.00082 0.00104 -14.19777 -18.55585 -58.31536 -31.53251 -0.94337 11.08904 47.55225 24.57128 -36.23102 -26.06244 0.01502 0.00435 7.20952 -26.18000 7.56849 
69.49965 93.43336 -39.16249 8.96377 9.57429 146.43959 -9.10345 27.26529 1.37306 0.00044 0.00699 0.00183 -9.87980 19.21964 15.68507 0.47935 8.47831 2.67979 -139.81721 -60.83207 -116.45990 -18.05065 61.93821 -97.84004 16.80767 8.96970 -4.73806 18.56145 9.92342 1.90213 83.90713 -2.75952 75.24187 -6.08726 27.32838 105.48457 16.40360 11.57174 9.08296 14.16933 -1.40070 -8.28480 -21.22858 13.99144 55.53716 16.82434 -0.00027 0.00002 -15.00839 -18.38078 -58.49995 -31.18345 -0.81322 11.72715 47.03926 24.32809 -35.90219 -25.56068 0.01598 0.00522 7.15095 -25.51152 8.00434 
69.27624 93.60441 -39.12698 9.06436 9.30182 146.89879 -8.44930 27.24063 1.08227 0.00010 0.00688 0.00151 -9.93061 18.92498 15.94760 0.34137 8.36773 2.83809 -139.50575 -59.99115 -116.16537 -17.31791 62.00883 -98.49324 16.91267 8.95791 -4.45752 18.29460 9.85358 2.11755 84.35248 -3.08916 75.84177 -6.72140 27.25854 106.00880 16.40733 11.48011 8.96573 14.31682 -1.79784 -7.56312 -21.05214 14.18666 54.47902 17.93130 0.00012 -0.00076 -15.79481 -18.10850 -58.61975 -30.83368 -0.08208 13.43408 47.87648 24.29628 -35.86264 -28.43985 0.15020 0.05320 9.76754 -26.53510 7.04108 
69.13995 93.73818 -39.08606 9.14296 9.06869 147.42007 -7.80605 27.19934 0.78368 -0.00037 0.00677 0.00092 -10.00131 18.74312 16.11411 0.16446 8.26788 2.93642 -139.21510 -59.18082 -115.85194 -16.55552 62.08190 -99.16955 17.01241 8.96109 -4.17287 17.97464 9.77843 2.28507 84.80168 -3.36969 76.41032 -7.35805 27.17892 106.49583 16.41831 11.38807 8.85843 14.44787 -2.11948 -7.02317 -20.84022 14.28685 53.44370 18.97145 0.00035 -0.00128 -16.56634 -17.76740 -58.68465 -30.49079 0.54703 15.03639 48.10939 23.38570 -35.90131 -26.17679 -0.00990 -0.00234 7.48081 -26.32894 6.75789 
69.07973 93.82926 -39.02668 9.19591 8.87932 147.98636 -7.19798 27.13662 0.49217 -0.00083 0.00667 0.00024 -10.08549 18.67076 16.19671 -0.04273 8.18676 2.97993 -138.94502 -58.41203 -115.51697 -15.75341 62.14923 -99.88264 17.08132 8.97777 -3.89874 17.62873 9.70613 2.38911 85.23422 -3.58857 76.93444 -7.99268 27.09366 106.95385 16.40980 11.28881 8.76028 14.56127 -2.37215 -6.64552 -20.60508 14.31008 52.44327 19.94513 0.00042 -0.00167 -17.33043 -17.38803 -58.70340 -30.16563 1.12269 16.53292 47.99686 22.01474 -36.01417 -26.52676 0.01632 0.00150 7.93191 -25.91692 6.78062 
69.07983 93.88078 -38.93591 9.21994 8.73426 148.57805 -6.64538 27.04971 0.22541 -0.00122 0.00652 -0.00032 -10.17651 18.70190 16.20464 -0.26560 8.11842 2.98688 -138.68541 -57.68977 -115.14120 -14.92569 62.21274 -100.62415 17.12467 8.99254 -3.63367 17.30846 9.63318 2.41685 85.61036 -3.74544 77.39558 -8.61450 27.00960 107.38862 16.38945 11.18911 8.66642 14.65513 -2.57610 -6.40860 -20.36134 14.26805 51.49743 20.86714 0.00034 -0.00206 -18.08809 -16.99589 -58.68281 -29.85918 1.68266 17.92444 47.68219 20.39600 -36.22652 -25.64655 0.01259 -0.00226 7.21804 -25.32047 6.98090 
69.12854 93.89561 -38.80577 9.21302 8.63289 149.17644 -6.16433 26.93790 0.00174 -0.00154 0.00627 -0.00063 -10.26847 18.82950 16.14386 -0.49609 8.04838 2.98023 -138.41582 -57.01786 -114.69713 -14.10349 62.28262 -101.37104 17.13875 8.99485 -3.38172 17.07077 9.54789 2.35536 85.88368 -3.84764 77.77027 -9.20922 26.93356 107.80376 16.35812 11.09171 8.57571 14.72775 -2.75300 -6.29151 -20.12393 14.16933 50.62704 21.75569 0.00014 -0.00246 -18.83486 -16.60845 -58.62668 -29.57268 2.25760 19.21361 47.24444 18.67941 -36.52243 -25.39886 0.01710 0.00168 7.15312 -24.73311 7.19937 
